#!OML:ASF H:\ManfredETheater\Project 1\Capture day 1\Session 1\subject.ASF
:FULLY-SPECIFIED
:DEGREES
78
root 1.57774 18.3489 11.5798 -72.8575 -18.0507 -201.668
lowerback 36.5923 -2.73819 1.77186
upperback 6.75801 -4.00961 -3.82967
thorax -11.08 -2.06666 -3.37162
lowerneck -7.60631 -6.48882 -2.42144
upperneck -8.4175 -9.64503 -6.26726
head -1.60807 -5.06914 -1.62907
rclavicle -5.88403e-014 4.13472e-014
rhumerus 42.7579 -11.655 -45.1197
rradius 87.8414
rwrist 9.07788
rhand -36.4421 9.84213
rfingers 7.12502
rthumb -9.53635 -19.9221
lclavicle -5.88403e-014 4.13472e-014
lhumerus 88.5219 -3.66691 58.4821
lradius 53.1527
lwrist -3.89534
lhand -36.141 -10.7233
lfingers 7.12502
lthumb -9.24585 19.054
rfemur -80.9203 -16.2371 25.2566
rtibia 36.5492
rfoot 5.37133 -4.26164
rtoes -38.777
lfemur -28.6638 2.50356 1.99784
ltibia 66.9571
lfoot 14.6802 4.10239
ltoes 22.7116
79
root 1.52475 18.3159 11.0877 -70.75 -17.9704 -201.922
lowerback 36.3233 -2.84731 1.55699
upperback 6.63379 -4.20859 -3.92566
thorax -11.1352 -2.14114 -3.28721
lowerneck -7.77046 -6.49934 -2.86331
upperneck -8.61448 -9.65183 -6.26634
head -1.62458 -5.06735 -1.55945
rclavicle 1.43125e-014 -3.97569e-014
rhumerus 42.7764 -12.3024 -43.4322
rradius 87.0787
rwrist 9.77094
rhand -36.8145 10.0355
rfingers 7.12502
rthumb -9.89563 -19.712
lclavicle 1.43125e-014 -3.97569e-014
lhumerus 90.1845 -3.50245 57.7302
lradius 52.5655
lwrist -4.52411
lhand -36.0334 -10.5263
lfingers 7.12502
lthumb -9.14205 19.2556
rfemur -82.4227 -16.349 26.4354
rtibia 40.6528
rfoot 5.4036 -2.57781
rtoes -38.8378
lfemur -28.5592 2.92954 2.67879
ltibia 66.4142
lfoot 15.1853 4.04887
ltoes 22.6254
80
root 1.47067 18.2671 10.5982 -68.6485 -17.9748 -202.23
lowerback 36.0167 -2.98724 1.45227
upperback 6.52704 -4.40111 -3.99202
thorax -11.1583 -2.21578 -3.23372
lowerneck -7.95332 -6.51068 -3.29553
upperneck -8.80472 -9.65718 -6.27006
head -1.63691 -5.06493 -1.49415
rclavicle 4.77083e-014 3.02153e-014
rhumerus 42.7255 -12.9116 -41.7407
rradius 86.3132
rwrist 10.4859
rhand -37.129 10.3212
rfingers 7.12502
rthumb -10.1991 -19.4116
lclavicle 4.77083e-014 3.02153e-014
lhumerus 91.7273 -3.39037 57.0038
lradius 52.011
lwrist -5.24416
lhand -35.9025 -10.2148
lfingers 7.12502
lthumb -9.01568 19.5726
rfemur -83.8024 -16.375 27.5784
rtibia 44.8269
rfoot 5.5476 -0.723324
rtoes -38.769
lfemur -28.4934 3.4179 3.44341
ltibia 65.9465
lfoot 15.4905 3.84331
ltoes 22.3784
81
root 1.41561 18.2023 10.1112 -66.5505 -18.0759 -202.609
lowerback 35.6239 -3.15603 1.47503
upperback 6.50791 -4.58072 -4.03609
thorax -11.1752 -2.28809 -3.21312
lowerneck -8.14464 -6.52455 -3.70666
upperneck -8.97836 -9.66162 -6.2682
head -1.64344 -5.06198 -1.43152
rclavicle 1.90833e-014 4.29375e-014
rhumerus 42.5742 -13.4752 -40.0667
rradius 85.5697
rwrist 11.2707
rhand -37.369 10.6716
rfingers 7.12502
rthumb -10.4307 -19.0497
lclavicle 1.90833e-014 4.29375e-014
lhumerus 93.1415 -3.34362 56.293
lradius 51.4999
lwrist -5.96007
lhand -35.7307 -9.78096
lfingers 7.12502
lthumb -8.84991 20.0135
rfemur -85.0409 -16.3226 28.7416
rtibia 49.0113
rfoot 5.69447 1.19876
rtoes -38.5435
lfemur -28.4642 3.97237 4.31811
ltibia 65.5652
lfoot 15.5963 3.46095
ltoes 21.8625
82
root 1.3586 18.1215 9.62511 -64.4781 -18.1482 -203.043
lowerback 35.3259 -3.3406 1.51883
upperback 6.41879 -4.77163 -4.06774
thorax -11.1859 -2.36656 -3.2022
lowerneck -8.35075 -6.53113 -4.06155
upperneck -9.11624 -9.65491 -6.30182
head -1.64072 -5.0546 -1.39065
rclavicle -1.27222e-014 5.40694e-014
rhumerus 42.2896 -13.9899 -38.4264
rradius 84.8843
rwrist 12.1027
rhand -37.5565 11.0596
rfingers 7.12502
rthumb -10.6115 -18.6524
lclavicle -1.27222e-014 5.40694e-014
lhumerus 94.4348 -3.38162 55.5922
lradius 51.0245
lwrist -6.58676
lhand -35.5141 -9.25969
lfingers 7.12502
lthumb -8.64094 20.5435
rfemur -86.1294 -16.2494 29.8222
rtibia 53.1668
rfoot 5.80038 3.05683
rtoes -38.1488
lfemur -28.4541 4.52995 5.1571
ltibia 65.2679
lfoot 15.4974 2.94834
ltoes 21.0239
